# xmcd
#
# Track frame offsets:
#	150
#	12732
#	21987
#	33930
#	44202
#	55522
#	69042
#	77437
#	92872
#	105017
#	117240
#	126020
#	142982
#	156612
#	164025
#	172257
#	183382
#	191587
#	206787
#	219025
#
# Disc length: 3036 seconds
#
# Revision: 2
# Processed by: cddbd v1.5.2PL0 Copyright (c) Steve Scherf et al.
# Submitted via: EasyCDDAExtractor 7.1.0.1
#
DISCID=170bda14
DTITLE=mehter
DYEAR=2232
DGENRE=Acid Jazz
TTITLE0=genç osman
TTITLE1=mehter marşı
TTITLE2=estergon kalesi
TTITLE3=ceddin dede
TTITLE4=sivas topol marşı
TTITLE5=çırpınırdı kardeniz
TTITLE6=devlet marşı
TTITLE7=kırımdan gelirim
TTITLE8=fatih topkapıdan
TTITLE9=dua
TTITLE10=hücum marşı
TTITLE11=esti nesimi nevbahar
TTITLE12=ordumuz etti yemin
TTITLE13=bülbüller ötüyor
TTITLE14=ihtiyar silah çatmış
TTITLE15=sancak marşı
TTITLE16=eski ordu marşı
TTITLE17=tarih çevir
TTITLE18=rast peşrevi
TTITLE19=hicaz humayun peşrevi
EXTD=
EXTT0=
EXTT1=
EXTT2=
EXTT3=
EXTT4=
EXTT5=
EXTT6=
EXTT7=
EXTT8=
EXTT9=
EXTT10=
EXTT11=
EXTT12=
EXTT13=
EXTT14=
EXTT15=
EXTT16=
EXTT17=
EXTT18=
EXTT19=
PLAYORDER=
